<?xml version="1.0" standalone="no"?>
<!DOCTYPE svg PUBLIC "-//W3C//DTD SVG 20010904//EN"
 "http://www.w3.org/TR/2001/REC-SVG-20010904/DTD/svg10.dtd">
<svg version="1.0" xmlns="http://www.w3.org/2000/svg"
 width="150.000000pt" height="150.000000pt" viewBox="0 0 150.000000 150.000000"
 preserveAspectRatio="xMidYMid meet">
<metadata>
Created by potrace 1.11, written by Peter Selinger 2001-2013
</metadata>
<g transform="translate(0.000000,150.000000) scale(0.100000,-0.100000)"
fill="#000000" stroke="none">
<path d="M102 1387 c17 -29 34 -54 39 -55 5 -2 7 -7 4 -12 -3 -5 0 -14 7 -22
7 -7 26 -38 42 -68 17 -30 44 -77 61 -105 17 -27 37 -62 44 -77 8 -15 18 -25
23 -22 5 3 8 2 7 -3 -5 -32 -1 -32 586 -32 l585 0 0 84 0 84 -47 6 c-27 4 -59
10 -73 15 -14 5 -38 11 -55 14 -16 2 -54 9 -84 15 -29 6 -57 8 -62 5 -5 -3 -9
-1 -9 4 0 5 -6 9 -12 9 -14 0 -163 30 -253 49 -16 4 -41 8 -55 10 -25 3 -38 5
-120 24 -25 5 -56 12 -70 14 -14 2 -83 16 -154 30 -71 15 -136 24 -143 22 -8
-3 -11 -1 -8 4 3 6 -4 10 -17 11 -13 0 -30 2 -38 4 -8 1 -28 5 -45 8 -30 6
-52 10 -110 23 -77 17 -77 18 -43 -39z"/>
<path d="M0 1307 l0 -125 138 -188 c76 -104 142 -195 146 -201 5 -9 -5 -12
-41 -9 -195 16 -229 19 -235 23 -5 2 -8 -23 -8 -57 l0 -60 38 4 c20 3 77 8
127 11 50 4 93 9 97 12 15 8 8 -14 -11 -38 -10 -13 -71 -96 -135 -184 l-116
-159 0 -145 c0 -143 0 -145 19 -126 15 17 179 289 364 608 l39 67 -45 78 c-24
42 -54 93 -65 112 -130 228 -292 495 -301 498 -8 3 -11 -32 -11 -121z"/>
<path d="M467 953 c-3 -5 -5 -117 -6 -250 0 -207 2 -243 14 -244 8 0 29 -1 45
-1 17 0 35 1 40 1 6 1 10 40 10 95 0 111 -11 103 141 98 l97 -3 -2 -95 c-1
-78 1 -94 14 -95 97 -6 90 -8 91 36 3 181 -1 446 -6 455 -4 6 -27 10 -51 9
l-44 -3 -1 -70 c-1 -39 0 -83 1 -98 l2 -28 -121 0 -120 0 -3 98 -3 97 -47 3
c-26 1 -49 -1 -51 -5z"/>
<path d="M979 951 c-1 -3 -2 -115 -3 -248 -1 -237 -1 -243 19 -244 72 -3 382
-4 393 -1 7 3 12 23 12 53 0 57 23 51 -192 51 l-128 0 0 44 0 44 48 0 c26 1
92 2 147 3 l100 2 0 50 0 50 -147 3 -148 3 0 44 0 45 160 0 160 0 0 54 0 54
-210 -1 c-115 0 -211 -3 -211 -6z"/>
<path d="M1460 720 c0 -132 -1 -243 -2 -247 -2 -5 7 -9 20 -11 l22 -3 0 250
c0 244 -1 251 -20 251 -19 0 -20 -7 -20 -240z"/>
<path d="M1478 384 c-5 -4 -56 -7 -286 -15 -29 -1 -55 -6 -58 -10 -2 -5 -12
-5 -22 -2 -18 7 -21 7 -192 -1 -63 -3 -140 -6 -170 -7 -30 -1 -58 -7 -62 -13
-5 -7 -8 -7 -8 -1 0 6 -21 10 -52 8 -29 -2 -125 -5 -213 -8 -88 -3 -165 -8
-171 -10 -17 -5 -45 -65 -37 -78 3 -5 1 -7 -5 -4 -10 7 -102 -139 -102 -162 0
-12 65 -9 112 5 20 6 51 12 98 20 19 3 37 9 40 13 3 3 21 7 40 7 19 1 46 4 60
7 44 10 64 14 110 23 25 4 47 8 50 9 3 0 21 4 40 8 19 4 46 10 60 13 14 3 34
7 45 8 19 4 312 63 345 70 8 2 35 7 60 12 25 4 47 8 50 9 33 7 107 18 113 17
4 -1 7 1 7 6 0 4 12 8 28 8 15 1 38 4 52 7 14 3 40 9 58 13 22 4 32 12 32 25
0 18 -13 32 -22 23z"/>
</g>
</svg>
